<svg width="33" height="32" viewBox="0 0 33 32" fill="none" xmlns="http://www.w3.org/2000/svg">
<path d="M31.8669 8.15837C31.6526 6.08721 30.867 4.26602 29.3315 2.80192C27.7127 1.2545 25.7367 0.576017 23.5823 0.468888C19.8923 0.266533 11.1315 0.135597 8.04854 0.647436C4.53709 1.21879 2.22787 3.27805 1.2518 6.74189C0.501901 9.40821 0.656642 21.728 1.08516 24.3706C1.68032 27.9772 3.811 30.2984 7.39387 31.2149C9.86974 31.8577 22.0467 31.7744 24.7726 31.334C28.3912 30.7507 30.7123 28.6319 31.6526 25.061C32.3668 22.3232 32.1169 10.6461 31.8669 8.18218M28.9744 23.8706C28.5578 26.6084 26.7366 28.3105 23.9751 28.6081C21.4397 28.8819 10.1316 29.0366 7.78667 28.382C5.53696 27.7511 4.25142 26.2037 3.88242 23.942C3.52532 21.7876 3.442 10.9913 3.88242 8.09886C4.29903 5.38492 6.10832 3.68276 8.85796 3.37327C11.6433 3.06379 21.6539 3.02808 24.3203 3.43279C27.058 3.8494 28.7483 5.6825 29.0577 8.44405C29.3434 11.0151 29.4148 21.0853 28.9982 23.8587L28.9744 23.8706ZM16.4284 7.95602C11.9885 7.95602 8.38184 11.5508 8.36993 16.0026C8.36993 20.4544 11.9766 24.0611 16.4165 24.0611C20.8564 24.0611 24.475 20.4544 24.475 16.0145C24.475 11.5627 20.8802 7.96792 16.4284 7.95602ZM16.3689 21.2043C13.4883 21.1805 11.1791 18.8237 11.2148 15.955C11.2386 13.0744 13.5954 10.7652 16.4641 10.789C19.3328 10.8128 21.642 13.1696 21.6182 16.0383C21.5944 18.9189 19.2376 21.2281 16.3689 21.1924V21.2043ZM26.6771 7.64653C26.6771 8.68211 25.832 9.52724 24.7845 9.52724C23.7489 9.52724 22.9038 8.68211 22.9038 7.63463C22.9038 6.59905 23.7489 5.75392 24.7964 5.75392C25.832 5.75392 26.6771 6.59905 26.6771 7.64653Z" fill="white"/>
</svg>
